<svg xmlns="http://www.w3.org/2000/svg" viewBox="0 0 843.71 517.98"><defs><style>.cls-1{fill:#94dfff;}.cls-2{font-size:37px;font-family:MyriadPro-Regular, Myriad Pro;}.cls-3{fill:none;}.cls-3,.cls-4{stroke:#000;stroke-miterlimit:10;}.cls-4{fill:#faa;}.cls-5{letter-spacing:0.01em;}.cls-6{letter-spacing:-0.01em;}.cls-7{letter-spacing:0em;}.cls-8{letter-spacing:-0.01em;}</style></defs><title>base-example</title><g id="Calque_2" data-name="Calque 2"><g id="Calque_1-2" data-name="Calque 1"><path class="cls-1" d="M266.91,517.48a39,39,0,0,1,0-78h90a39,39,0,1,1,0,78Z"/><path d="M356.91,440a38.5,38.5,0,1,1,0,77h-90a38.5,38.5,0,0,1,0-77h90m0-1h-90a39.51,39.51,0,0,0-39.5,39.5h0a39.5,39.5,0,0,0,39.5,39.5h90a39.49,39.49,0,0,0,39.5-39.5h0a39.5,39.5,0,0,0-39.5-39.5Z"/><text class="cls-2" transform="translate(285.3 489.34)">C0</text><path class="cls-1" d="M266.91,376.13a39,39,0,0,1,0-78h90a39,39,0,0,1,0,78Z"/><path d="M356.91,298.63a38.5,38.5,0,0,1,0,77h-90a38.5,38.5,0,0,1,0-77h90m0-1h-90a39.5,39.5,0,0,0-39.5,39.5h0a39.51,39.51,0,0,0,39.5,39.5h90a39.5,39.5,0,0,0,39.5-39.5h0a39.49,39.49,0,0,0-39.5-39.5Z"/><text class="cls-2" transform="translate(291.69 347.99)">C1</text><line class="cls-3" x1="312.11" y1="377.13" x2="312.11" y2="426.28"/><polygon points="303.18 423.67 312.1 439.13 321.03 423.67 303.18 423.67"/><line class="cls-3" x1="513.11" y1="80.63" x2="513.11" y2="129.78"/><polygon points="504.18 127.17 513.1 142.63 522.03 127.17 504.18 127.17"/><path class="cls-1" d="M468,223.13a39,39,0,0,1,0-78h90a39,39,0,0,1,0,78Z"/><path d="M558,145.63a38.5,38.5,0,0,1,0,77H468a38.5,38.5,0,0,1,0-77h90m0-1H468a39.49,39.49,0,0,0-39.5,39.5h0a39.5,39.5,0,0,0,39.5,39.5h90a39.51,39.51,0,0,0,39.5-39.5h0a39.5,39.5,0,0,0-39.5-39.5Z"/><text class="cls-2" transform="translate(492.79 194.99)">C2</text><path class="cls-1" d="M468,79.13a39,39,0,0,1,0-78h90a39,39,0,0,1,0,78Z"/><path d="M558,1.63a38.5,38.5,0,0,1,0,77H468a38.5,38.5,0,0,1,0-77h90m0-1H468a39.49,39.49,0,0,0-39.5,39.5h0A39.5,39.5,0,0,0,468,79.63h90a39.51,39.51,0,0,0,39.5-39.5h0A39.5,39.5,0,0,0,558,.63Z"/><text class="cls-2" transform="translate(492.79 50.99)">C3</text><path class="cls-3" d="M513.11,224.13V296.4a41.38,41.38,0,0,1-41.74,41.37L409,337.24"/><polygon points="411.64 328.34 396.11 337.13 411.48 346.19 411.64 328.34"/><rect class="cls-4" x="0.61" y="297.74" width="142" height="79" transform="translate(-0.89 0.19) rotate(-0.15)"/><text class="cls-2" transform="translate(19.08 348.24) rotate(-0.15)"><tspan class="cls-5">M</tspan><tspan x="29.97" y="0">as</tspan><tspan class="cls-6" x="62.45" y="0">t</tspan><tspan x="74.48" y="0">er</tspan></text><rect class="cls-4" x="681.61" y="0.71" width="161.5" height="79" transform="matrix(1, 0, 0, 1, -0.1, 2.01)"/><text class="cls-2" transform="translate(700.08 51.24) rotate(-0.15)"><tspan class="cls-7">D</tspan><tspan x="24.79" y="0">e</tspan><tspan class="cls-8" x="43.33" y="0">v</tspan><tspan x="60.75" y="0">elop</tspan></text><line class="cls-3" x1="142.11" y1="337.05" x2="214.19" y2="336.86"/><polygon points="211.59 345.85 227.1 336.83 211.54 327.9 211.59 345.85"/><line class="cls-3" x1="681.6" y1="41.02" x2="609.52" y2="41.02"/><polygon points="612.15 32.04 596.61 41.02 612.15 49.99 612.15 32.04"/><line class="cls-3" x1="808.11" y1="239.13" x2="806.11" y2="238.13"/></g></g></svg>